<svg width="153" height="207" viewBox="0 0 153 207" fill="none" xmlns="http://www.w3.org/2000/svg">
<path opacity="0.3" d="M147.261 192.551C147.261 200.197 118.116 206.393 82.1627 206.393C46.2007 206.393 17.0557 200.197 17.0557 192.551C17.0557 184.901 46.2717 179.027 82.2327 179.027C118.186 179.027 147.261 184.901 147.261 192.551Z" fill="#231F20"/>
<path d="M129.85 134.681C133.976 135.018 137.495 137.789 139.519 141.128C142.984 146.843 143.419 154.861 143.65 161.318C143.925 169.022 142.382 176.799 139.097 183.911C141.431 183.821 142.97 186.506 142.312 188.589C141.654 190.672 139.578 192.097 137.481 193.066C131.099 196.016 123.105 196.034 117.071 192.6C112.082 189.762 108.46 184.287 108.531 178.764C108.57 175.76 108.844 173.579 108.407 170.508C107.881 166.805 108.015 163.015 108.835 159.347C110.134 153.539 113.147 148.064 117.423 143.637C118.362 142.665 119.808 141.797 120.61 140.762C121.337 139.824 121.488 138.614 122.306 137.653C124.051 135.601 127.072 134.455 129.85 134.681Z" fill="#D9C5B2"/>
<path d="M31.6556 170.65C31.2386 172.642 30.7676 174.72 29.4776 176.259C27.9086 178.131 25.4496 178.848 23.2326 179.798C21.0156 180.749 18.7076 182.321 18.3116 184.767C17.9676 186.888 19.2586 189.025 20.9996 190.224C22.7406 191.423 24.8556 191.865 26.9196 192.198C30.9496 192.848 35.0906 193.178 39.0786 192.339C43.0666 191.5 46.9176 189.378 49.2166 185.922C50.7746 183.581 51.5396 180.783 52.2026 178.023C56.4526 160.324 57.4746 141.975 58.4796 123.751C58.7756 118.379 58.7766 112.219 54.8996 108.593C52.6516 106.491 49.3106 105.719 46.4246 106.634C37.1416 109.578 38.9466 125.11 37.9926 132.708C36.3936 145.442 34.2786 158.104 31.6556 170.65Z" fill="#D2B8A0"/>
<path d="M22.1677 67.0042C19.7237 80.0662 49.2377 79.4382 50.2727 69.3992C51.2057 60.3452 40.5957 59.2752 35.5097 59.4502C29.1787 59.6692 23.6867 58.8762 22.1677 67.0042Z" fill="#A17D60"/>
<path d="M97.7827 53.3542C97.5127 49.1572 97.1747 44.9592 96.9907 40.7482C96.7407 35.0332 95.8348 30.4302 93.4728 25.1792C90.5798 18.7442 81.1037 6.99822 93.7707 3.86222C100.851 2.10822 109.43 14.7182 112.141 20.0902C114.138 24.0512 114.004 28.8092 115.922 32.7232C118.46 37.8982 123.07 41.4002 123.416 47.1172C123.958 56.1252 115.383 60.6002 111.893 67.7992C110.995 69.6502 110.879 73.5492 108.257 74.4672C97.8657 78.1072 98.1027 58.3192 97.7827 53.3542Z" fill="#D0B096"/>
<path d="M54.4367 103.197C57.5657 102.719 60.7387 102.452 64.1047 103.375C73.0817 105.835 76.7617 103.204 83.3027 95.6384C92.2597 85.2784 92.6627 82.9124 95.9857 72.1554C98.2237 64.9084 98.8797 51.5424 100.628 43.5094C103.182 31.7754 101.642 18.2854 94.1447 8.92842C90.3157 4.15142 86.8777 2.65743 81.2137 2.04343C74.5487 1.32243 71.2016 3.04643 64.8746 2.44343C60.9326 2.06943 55.3016 0.516427 50.8186 0.0834275C39.6516 -0.992573 29.1977 8.49943 25.5247 19.3224C23.8877 24.1474 22.7387 29.4484 22.2777 34.6224C21.8067 39.9164 21.6817 45.0674 22.8807 50.1154C23.9097 54.4434 28.0057 57.3084 28.5017 61.7554C28.8187 64.5924 26.6147 71.6734 26.6667 74.6524C26.7637 80.4044 27.1157 83.9104 28.7687 89.4274C32.5187 101.956 42.9977 104.947 54.4367 103.197Z" fill="#EADBCC"/>
<path d="M98.5787 83.9663C100.653 87.0663 101.949 92.8283 101.373 96.4963C100.821 99.9913 98.8907 103.474 96.9677 106.119C92.7197 111.97 86.4727 115.872 80.0547 118.132C70.6417 121.452 60.6766 124.265 50.9436 119.571C46.0886 117.23 41.8157 114.613 39.4937 108.956C33.4027 94.1123 50.9276 82.7743 62.4566 78.6953C73.6626 74.7313 92.0927 74.2713 98.5787 83.9663Z" fill="#E9AAA6"/>
<path d="M69.1957 83.6787C79.8407 81.1877 90.2096 82.0037 99.1546 90.0167C108.285 98.1947 110.721 113.659 117.168 127.839C122.255 139.029 134.876 157.611 135.991 169.727C138.142 193.109 123.611 197.294 113.833 199.019C97.8167 201.846 71.1277 203.039 60.2777 186.077C58.2117 182.847 57.0457 179.066 55.9067 175.344C52.5207 164.281 49.1347 153.218 45.7487 142.155C44.8147 139.105 39.8757 126.352 39.7127 115.759C39.6397 111.024 41.2007 107.716 43.3297 104.184C45.2087 101.062 55.6567 86.8477 69.1957 83.6787Z" fill="#EADBCC"/>
<path d="M51.6906 142.071C53.6766 140.829 55.9396 140.196 58.2056 139.787C60.0946 139.446 62.0396 139.252 63.9246 139.655C66.9626 140.305 69.6436 142.528 71.2586 145.412C72.8726 148.295 73.4586 151.783 73.1496 155.126C72.9726 157.034 72.0136 159.345 70.2516 159.234C69.4096 159.181 68.7016 158.557 68.0066 158.031C63.2566 154.435 56.3116 154.812 51.9776 158.902C51.2166 159.62 50.4956 160.46 49.5326 160.79C48.2076 161.245 46.6846 160.561 45.8176 159.366C44.0656 156.955 45.1586 153.161 45.8196 150.497C46.6846 147.01 48.8066 143.876 51.6906 142.071Z" fill="#D9C5B2"/>
<path d="M80.5996 185.401C78.9376 171.622 74.9576 137.069 55.4416 142.307C51.2916 143.421 48.0126 147.018 46.1026 151.155C44.1916 155.291 43.4726 159.951 42.9516 164.552C42.1606 171.529 42.7616 177.584 45.6556 186.7C44.3966 187.476 41.4756 187.4 40.5526 188.627C38.8136 190.938 38.2126 194.192 38.9946 197.059C39.2476 197.988 39.6416 198.883 40.2166 199.63C43.5966 204.019 52.5246 203.39 57.2126 203.224C63.6836 202.995 69.5966 201.179 75.4116 198.258C79.9746 195.965 81.2176 190.525 80.5996 185.401Z" fill="#D9C7B5"/>
<path d="M114.07 174.713C108.472 182.314 108.876 188.863 108.929 188.94C114.108 196.46 118.496 195.605 125.887 190.118C127.302 189.068 132.273 185.404 136.026 177.895C136.263 175.469 136.369 172.752 135.991 169.726C134.967 161.53 130.983 154.201 130.953 154.242C124.108 163.382 114.949 173.52 114.07 174.713Z" fill="#D2B8A0"/>
<path d="M125.791 186.529C118.733 192.454 113.583 198.462 108.929 188.94C108.886 188.857 108.845 188.769 108.805 188.683C105.756 182.062 109.856 181.191 115.161 175.505C116.17 174.423 126.939 163.506 132.82 155.639C145.514 138.655 149.89 124.388 150.438 124.078C153.747 122.205 152.88 145.489 145.408 161.727C138.982 175.693 127.904 184.755 125.791 186.529Z" fill="#D9C7B5"/>
<path d="M24.9976 49.43C25.7166 45.287 26.5046 41.149 27.1416 36.983C28.0036 31.328 29.3986 26.849 32.3126 21.882C35.8806 15.795 46.5646 5.13601 34.3086 0.657008C27.4566 -1.84799 17.5736 9.76601 14.3006 14.816C11.8886 18.54 11.5106 23.284 9.18365 26.969C6.10365 31.842 1.14364 34.828 0.186637 40.474C-1.32136 49.371 6.72363 54.742 9.41863 62.275C10.1136 64.212 9.80965 68.1 12.3176 69.295C22.2547 74.031 24.1466 54.332 24.9976 49.43Z" fill="#D0B096"/>
</svg>
